<?xml version="1.0" encoding="iso-8859-1"?>
<!-- Generator: Adobe Illustrator 19.0.0, SVG Export Plug-In . SVG Version: 6.00 Build 0)  -->
<svg version="1.1" id="Capa_1" xmlns="http://www.w3.org/2000/svg" xmlns:xlink="http://www.w3.org/1999/xlink" x="0px" y="0px"
	 viewBox="0 0 400 400" style="enable-background:new 0 0 400 400;" xml:space="preserve">
<g>
	<g>
		<path d="M72,176v160h256V176H72z M312,320H88V192h224V320z"/>
	</g>
</g>
<g>
	<g>
		<rect x="120" y="224" width="160" height="16"/>
	</g>
</g>
<g>
	<g>
		<rect x="120" y="272" width="160" height="16"/>
	</g>
</g>
<g>
	<g>
		<path d="M377.936,65.936l-35.888-35.888C333.056,21.056,320.848,16,308.112,16H296V0H72v16H40C22.32,16,8,30.32,8,48v320
			c0,17.68,14.32,32,32,32h320c17.68,0,32-14.32,32-32V99.888C392,87.152,386.944,74.944,377.936,65.936z M88,16h192v80H88V16z
			 M376,368c0,8.816-7.184,16-16,16H40c-8.816,0-16-7.184-16-16V48c0-8.816,7.184-16,16-16h32v64c0,8.832,7.168,16,16,16h192
			c8.832,0,16-7.168,16-16V32h12.112c8.544,0,16.576,3.328,22.624,9.376l35.888,35.888C372.672,83.296,376,91.328,376,99.888V368z"
			/>
	</g>
</g>
<g>
	<g>
		<path d="M216,32v48h48V32H216z M248,64h-16V48h16V64z"/>
	</g>
</g>
<g>
</g>
<g>
</g>
<g>
</g>
<g>
</g>
<g>
</g>
<g>
</g>
<g>
</g>
<g>
</g>
<g>
</g>
<g>
</g>
<g>
</g>
<g>
</g>
<g>
</g>
<g>
</g>
<g>
</g>
</svg>
