<svg xmlns="http://www.w3.org/2000/svg" viewBox="0 0 44 44"><title>floppy-disk-2@1x</title><g id="Layer_2" data-name="Layer 2"><g id="Electronics"><g id="Floppy_Disk_2_2x.png" data-name="Floppy Disk 2@2x.png"><path d="M24,28H12v2H24Zm2-16h4V4H26Zm6,20H12v2H32ZM42,6,36,0H4A4,4,0,0,0,0,4V40a4,4,0,0,0,4,4H40a4,4,0,0,0,4-4V8ZM12,2H32V14H12ZM36,42H8V24H36Zm6-2a2,2,0,0,1-2,2H38V24a2,2,0,0,0-2-2H8a2,2,0,0,0-2,2V42H4a2,2,0,0,1-2-2V4A2,2,0,0,1,4,2h6V14a2,2,0,0,0,2,2H32a2,2,0,0,0,2-2V2h1l7,7ZM32,36H12v2H32Z"/></g></g></g></svg>